# Blender 3.6.0
# www.blender.org
mtllib lamp_base.mtl
o LAMP_BASE
v 3.516576 0.021690 0.348500
v 3.516576 0.052942 0.348500
v 3.516576 0.021690 -0.266533
v 3.516576 0.052942 -0.266533
v 4.131609 0.021690 0.348500
v 4.131609 0.052942 0.348500
v 4.131609 0.021690 -0.266533
v 4.131609 0.052942 -0.266533
v 3.423916 0.016982 -0.092408
v 3.423916 0.016982 0.174376
v 3.423916 0.057650 0.174376
v 3.423916 0.057650 -0.092408
v 4.224268 0.016982 0.174376
v 4.224268 0.016982 -0.092408
v 4.224268 0.057650 -0.092408
v 4.224268 0.057650 0.174376
v 3.957484 0.016982 -0.359192
v 3.690700 0.016982 -0.359192
v 3.690700 0.057650 -0.359192
v 3.957484 0.057650 -0.359192
v 3.690700 0.016982 0.441160
v 3.957484 0.016982 0.441160
v 3.957484 0.057650 0.441160
v 3.690700 0.057650 0.441160
v 3.785984 0.072049 0.002876
v 3.862200 0.072049 0.002876
v 3.785984 0.072049 0.079092
v 3.862200 0.072049 0.079092
v 3.925249 0.041209 -0.060173
v 3.722935 0.041209 -0.060173
v 3.925249 0.041209 0.142141
v 3.722935 0.041209 0.142141
v 3.795097 1.684191 0.011511
v 3.853566 1.684191 0.011511
v 3.853566 1.684191 0.070457
v 3.795097 1.684191 0.070457
vn -0.8828 -0.0000 -0.4698
vn 0.4698 -0.0000 -0.8828
vn 0.8828 -0.0000 0.4698
vn -0.4698 -0.0000 0.8828
vn -0.0472 -0.9978 -0.0472
vn -0.0354 0.9987 0.0354
vn -0.0354 0.9987 -0.0354
vn -0.0397 0.9992 -0.0000
vn -0.0472 -0.9978 0.0472
vn -0.0808 -0.9967 -0.0000
vn 0.8828 -0.0000 -0.4698
vn 1.0000 -0.0000 -0.0000
vn -0.8828 -0.0000 0.4698
vn -1.0000 -0.0000 -0.0000
vn 0.0808 -0.9967 -0.0000
vn -0.0000 -1.0000 -0.0000
vn 0.0472 -0.9978 0.0472
vn -0.0000 -0.9967 0.0808
vn 0.0397 0.9992 -0.0000
vn 0.0354 0.9987 -0.0354
vn -0.0000 0.9992 -0.0397
vn 0.0354 0.9987 0.0354
vn -0.0000 0.9992 0.0397
vn 0.0472 -0.9978 -0.0472
vn -0.0000 -0.9967 -0.0808
vn 0.4698 -0.0000 0.8828
vn -0.0000 -0.0000 1.0000
vn -0.4698 -0.0000 -0.8828
vn -0.0000 -0.0000 -1.0000
vn -0.0000 0.0054 1.0000
vn -1.0000 0.0057 -0.0000
vn 1.0000 0.0054 -0.0000
vn -0.0000 0.0054 -1.0000
vn -0.0000 1.0000 -0.0000
vt 0.375000 0.166667
vt 0.625000 0.166667
vt 0.625000 0.250000
vt 0.375000 0.250000
vt 0.375000 0.416667
vt 0.625000 0.416667
vt 0.625000 0.500000
vt 0.375000 0.500000
vt 0.375000 0.666667
vt 0.625000 0.666667
vt 0.625000 0.750000
vt 0.375000 0.750000
vt 0.375000 0.916667
vt 0.625000 0.916667
vt 0.625000 1.000000
vt 0.375000 1.000000
vt 0.291667 0.666667
vt 0.291667 0.750000
vt 0.791667 0.666667
vt 0.875000 0.666667
vt 0.875000 0.750000
vt 0.791667 0.750000
vt 0.791667 0.500000
vt 0.875000 0.500000
vt 0.875000 0.583333
vt 0.791667 0.583333
vt 0.291667 0.500000
vt 0.375000 0.583333
vt 0.291667 0.583333
vt 0.625000 0.583333
vt 0.375000 0.000000
vt 0.625000 0.000000
vt 0.625000 0.083333
vt 0.375000 0.083333
vt 0.125000 0.583333
vt 0.208333 0.583333
vt 0.208333 0.666667
vt 0.125000 0.666667
vt 0.125000 0.500000
vt 0.208333 0.500000
vt 0.708333 0.583333
vt 0.708333 0.666667
vt 0.708333 0.500000
vt 0.708333 0.750000
vt 0.208333 0.750000
vt 0.125000 0.750000
vt 0.625000 0.833333
vt 0.375000 0.833333
vt 0.625000 0.333333
vt 0.375000 0.333333
vt 0.708333 0.666667
vt 0.791667 0.666667
vt 0.791667 0.583333
vt 0.708333 0.583333
s 0
f 9/1/1 12/2/1 4/3/1 3/4/1
f 17/5/2 20/6/2 8/7/2 7/8/2
f 13/9/3 16/10/3 6/11/3 5/12/3
f 21/13/4 24/14/4 2/15/4 1/16/4
f 31/17/5 13/9/5 5/12/5 22/18/5
f 27/19/6 11/20/6 2/21/6 24/22/6
f 19/23/7 4/24/7 12/25/7 25/26/7
f 25/26/8 12/25/8 11/20/8 27/19/8
f 17/27/9 7/8/9 14/28/9 29/29/9
f 29/29/10 14/28/10 13/9/10 31/17/10
f 7/8/11 8/7/11 15/30/11 14/28/11
f 14/28/12 15/30/12 16/10/12 13/9/12
f 1/31/13 2/32/13 11/33/13 10/34/13
f 10/34/14 11/33/14 12/2/14 9/1/14
f 9/35/15 30/36/15 32/37/15 10/38/15
f 30/36/16 29/29/16 31/17/16 32/37/16
f 3/39/17 18/40/17 30/36/17 9/35/17
f 18/40/18 17/27/18 29/29/18 30/36/18
f 15/30/19 26/41/19 28/42/19 16/10/19
f 8/7/20 20/43/20 26/41/20 15/30/20
f 20/43/21 19/23/21 25/26/21 26/41/21
f 16/10/22 28/42/22 23/44/22 6/11/22
f 28/42/23 27/19/23 24/22/23 23/44/23
f 10/38/24 32/37/24 21/45/24 1/46/24
f 32/37/25 31/17/25 22/18/25 21/45/25
f 5/12/26 6/11/26 23/47/26 22/48/26
f 22/48/27 23/47/27 24/14/27 21/13/27
f 3/4/28 4/3/28 19/49/28 18/50/28
f 18/50/29 19/49/29 20/6/29 17/5/29
f 27/19/30 28/42/30 35/51/30 36/52/30
f 25/26/31 27/19/31 36/52/31 33/53/31
f 28/42/32 26/41/32 34/54/32 35/51/32
f 26/41/33 25/26/33 33/53/33 34/54/33
f 35/51/34 34/54/34 33/53/34 36/52/34
