# Blender 3.6.0
# www.blender.org
mtllib sofa_base.mtl
o Sofa
v -1.679781 0.305215 1.000000
v -1.680265 0.507786 1.000000
v -1.923090 0.295240 -1.000000
v -1.923090 0.517762 -1.000000
v 0.000000 0.295240 -1.000000
v 0.000000 0.517762 -1.000000
v 0.000000 0.295240 1.000000
v 0.000000 0.517762 1.000000
v -1.923090 0.295240 -0.822602
v -1.870268 0.518377 -0.811580
v 0.000000 0.518377 -0.811580
v 0.000000 0.295240 -0.822602
v -1.641334 1.492856 -1.044912
v -1.621084 1.492241 -1.153466
v 0.000000 1.492241 -1.153466
v 0.000000 1.492856 -1.044912
v -1.723748 1.160975 -1.101296
v 0.000000 1.160975 -1.101296
v 0.000000 1.161590 -0.965593
v -1.695082 1.161461 -0.965593
v 0.000000 1.058179 -1.085108
v -1.731174 1.058794 -0.940979
v -1.755606 1.058179 -1.085108
v 0.000000 1.058794 -0.940979
v -1.860969 1.058179 -1.085108
v -1.829111 1.160975 -1.101296
v -1.927710 1.161287 -0.910372
v -1.920940 1.058179 -0.872135
v -1.663603 1.135473 0.737704
v -1.689193 1.083552 0.730047
v -1.812809 1.135915 0.724082
v -1.795535 1.083552 0.730047
v 1.679781 0.305215 1.000000
v 1.680265 0.507786 1.000000
v 1.923090 0.295240 -1.000000
v 1.923090 0.517762 -1.000000
v 1.923090 0.295240 -0.822602
v 1.870268 0.518377 -0.811580
v 1.641334 1.492856 -1.044912
v 1.621084 1.492241 -1.153466
v 1.723748 1.160975 -1.101296
v 1.695082 1.161461 -0.965593
v 1.731174 1.058794 -0.940979
v 1.755606 1.058179 -1.085108
v 1.860969 1.058179 -1.085108
v 1.829111 1.160975 -1.101296
v 1.927710 1.161287 -0.910372
v 1.920940 1.058179 -0.872135
v 1.663603 1.135473 0.737704
v 1.689193 1.083552 0.730047
v 1.812809 1.135915 0.724082
v 1.795535 1.083552 0.730047
vn -0.9834 0.1131 0.1418
vn -0.0000 -0.0000 1.0000
vn -0.0028 1.0000 0.0032
vn -0.0028 -1.0000 0.0029
vn -0.0000 -0.0000 -1.0000
vn -0.0000 -1.0000 -0.0000
vn -0.0000 -0.1556 -0.9878
vn -0.9860 0.1182 0.1176
vn -0.0000 1.0000 -0.0057
vn -0.0000 0.2328 0.9725
vn -0.9713 0.2357 0.0324
vn 0.9278 -0.3724 -0.0203
vn -0.0000 0.2330 0.9725
vn -0.0000 0.2329 0.9725
vn -0.9277 0.3057 0.2144
vn -0.9307 0.0168 -0.3654
vn -0.0009 1.0000 -0.0026
vn 0.0025 -1.0000 0.0020
vn -0.0532 -0.0119 0.9985
vn 0.0056 -0.9999 0.0150
vn 0.0024 0.9999 0.0153
vn -0.9885 -0.1320 0.0734
vn 0.9834 0.1131 0.1418
vn 0.0028 1.0000 0.0032
vn 0.0028 -1.0000 0.0029
vn 0.9860 0.1182 0.1176
vn 0.9713 0.2357 0.0324
vn -0.9278 -0.3724 -0.0203
vn 0.9277 0.3057 0.2144
vn 0.9307 0.0168 -0.3654
vn 0.0009 1.0000 -0.0026
vn -0.0025 -1.0000 0.0020
vn 0.0532 -0.0119 0.9985
vn -0.0056 -0.9999 0.0150
vn -0.0024 0.9999 0.0153
vn 0.9885 -0.1320 0.0734
vt 0.375000 0.227825
vt 0.625000 0.227825
vt 0.625000 0.250000
vt 0.375000 0.250000
vt 0.375000 0.875000
vt 0.625000 0.875000
vt 0.625000 1.000000
vt 0.375000 1.000000
vt 0.750000 0.522175
vt 0.875000 0.522175
vt 0.875000 0.750000
vt 0.750000 0.750000
vt 0.125000 0.522175
vt 0.250000 0.522175
vt 0.250000 0.750000
vt 0.125000 0.750000
vt 0.625000 0.375000
vt 0.375000 0.375000
vt 0.125000 0.500000
vt 0.250000 0.500000
vt 0.375000 0.000000
vt 0.625000 0.000000
vt 0.750000 0.500000
vt 0.875000 0.500000
vt 0.750000 0.522175
vt 0.625000 0.250000
vt 0.625000 0.227825
s 0
f 9/1/1 10/2/1 4/3/1 3/4/1
f 7/5/2 8/6/2 2/7/2 1/8/2
f 11/9/3 10/10/3 2/11/3 8/12/3
f 9/13/4 12/14/4 7/15/4 1/16/4
f 3/4/5 4/3/5 6/17/5 5/18/5
f 3/19/6 5/20/6 12/14/6 9/13/6
f 18/17/7 17/3/7 14/3/7 15/17/7
f 1/21/8 2/22/8 10/2/8 9/1/8
f 15/23/9 14/24/9 13/10/9 16/9/9
f 20/10/10 19/25/10 16/9/10 13/10/10
f 17/3/11 20/2/11 13/2/11 14/3/11
f 22/10/12 20/10/12 29/10/12 30/10/12
f 22/10/13 24/25/13 19/25/13 20/10/13
f 21/17/7 23/26/7 17/3/7 18/17/7
f 6/17/7 4/3/7 23/26/7 21/17/7
f 10/10/14 11/9/14 24/25/14 22/10/14
f 4/3/15 10/2/15 22/27/15 23/26/15
f 25/26/16 28/27/16 27/2/16 26/3/16
f 20/2/17 17/3/17 26/3/17 27/2/17
f 23/26/18 22/27/18 28/27/18 25/26/18
f 17/3/7 23/26/7 25/26/7 26/3/7
f 30/10/19 29/10/19 31/10/19 32/10/19
f 28/27/20 22/27/20 30/27/20 32/27/20
f 20/2/21 27/2/21 31/2/21 29/2/21
f 27/2/22 28/27/22 32/27/22 31/2/22
f 37/1/23 35/4/23 36/3/23 38/2/23
f 7/5/2 33/8/2 34/7/2 8/6/2
f 11/9/24 8/12/24 34/11/24 38/10/24
f 37/13/25 33/16/25 7/15/25 12/14/25
f 35/4/5 5/18/5 6/17/5 36/3/5
f 35/19/6 37/13/6 12/14/6 5/20/6
f 18/17/7 15/17/7 40/3/7 41/3/7
f 33/21/26 37/1/26 38/2/26 34/22/26
f 15/23/9 16/9/9 39/10/9 40/24/9
f 42/10/10 39/10/10 16/9/10 19/25/10
f 41/3/27 40/3/27 39/2/27 42/2/27
f 43/10/28 50/10/28 49/10/28 42/10/28
f 43/10/13 42/10/13 19/25/13 24/25/13
f 21/17/7 18/17/7 41/3/7 44/26/7
f 6/17/7 21/17/7 44/26/7 36/3/7
f 38/10/14 43/10/14 24/25/14 11/9/14
f 36/3/29 44/26/29 43/27/29 38/2/29
f 45/26/30 46/3/30 47/2/30 48/27/30
f 42/2/31 47/2/31 46/3/31 41/3/31
f 44/26/32 45/26/32 48/27/32 43/27/32
f 41/3/7 46/3/7 45/26/7 44/26/7
f 50/10/33 52/10/33 51/10/33 49/10/33
f 48/27/34 52/27/34 50/27/34 43/27/34
f 42/2/35 49/2/35 51/2/35 47/2/35
f 47/2/36 51/2/36 52/27/36 48/27/36
