# Blender 3.6.0
# www.blender.org
mtllib sofa_back_sticks.mtl
o TLB
v -2.128646 -0.010377 -1.072362
v -1.777405 1.090079 -0.977346
v -2.112125 -0.010377 -1.006578
v -1.708041 1.090079 -0.701144
v -2.182600 -0.010377 -1.058812
v -1.868320 1.090079 -0.954514
v -2.159287 -0.010377 -0.994734
v -1.792164 1.090079 -0.680018
v 2.128646 -0.010377 -1.072362
v 1.777406 1.090079 -0.977346
v 2.112125 -0.010377 -1.006578
v 1.708041 1.090079 -0.701144
v 2.182600 -0.010377 -1.058812
v 1.868320 1.090079 -0.954514
v 2.159287 -0.010377 -0.994734
v 1.792164 1.090079 -0.680018
vn 0.9319 -0.2772 -0.2340
vn 0.2293 -0.3376 0.9129
vn -0.9322 0.2365 0.2739
vn -0.2405 0.1594 -0.9575
vn -0.0000 -1.0000 -0.0000
vn -0.0000 1.0000 -0.0000
vn -0.9319 -0.2772 -0.2340
vn -0.2293 -0.3376 0.9129
vn 0.9322 0.2365 0.2739
vn 0.2405 0.1594 -0.9575
vt 0.375000 0.000000
vt 0.625000 0.000000
vt 0.625000 0.250000
vt 0.375000 0.250000
vt 0.625000 0.500000
vt 0.375000 0.500000
vt 0.625000 0.750000
vt 0.375000 0.750000
vt 0.625000 1.000000
vt 0.375000 1.000000
vt 0.125000 0.500000
vt 0.125000 0.750000
vt 0.875000 0.500000
vt 0.875000 0.750000
s 0
f 1/1/1 2/2/1 4/3/1 3/4/1
f 3/4/2 4/3/2 8/5/2 7/6/2
f 7/6/3 8/5/3 6/7/3 5/8/3
f 5/8/4 6/7/4 2/9/4 1/10/4
f 3/11/5 7/6/5 5/8/5 1/12/5
f 8/5/6 4/13/6 2/14/6 6/7/6
f 9/1/7 11/4/7 12/3/7 10/2/7
f 11/4/8 15/6/8 16/5/8 12/3/8
f 15/6/9 13/8/9 14/7/9 16/5/9
f 13/8/10 9/10/10 10/9/10 14/7/10
f 11/11/5 9/12/5 13/8/5 15/6/5
f 16/5/6 14/7/6 10/14/6 12/13/6
