# Blender 3.6.0
# www.blender.org
mtllib unicorn.mtl
o mmGroup0
v 0.648794 0.118724 1.419351
v 0.646113 0.036329 1.243055
v 0.595097 0.287363 1.454969
v 0.420603 0.089086 1.570182
v -0.088401 0.434759 1.614110
v 0.255904 -0.807270 2.203676
v -0.088401 -1.192220 2.697552
v 0.202526 -1.231306 2.694298
v 0.907263 -0.587742 0.832924
v 0.690479 0.474964 1.016638
v 0.731722 -0.280925 -0.415131
v 0.567243 0.600790 0.659672
v 0.507448 0.785416 0.846507
v 0.384962 0.817196 1.358103
v 0.414238 0.899913 0.967968
v 0.192814 1.002591 0.856955
v 0.376438 1.344585 0.923494
v 0.424885 1.491074 0.791901
v 0.242700 1.030725 0.579050
v -0.088401 1.052166 0.892529
v 0.120564 0.998504 -0.200802
v -0.369615 1.002591 0.856955
v -0.591039 0.899913 0.967968
v -0.561763 0.817196 1.358103
v -0.684249 0.785416 0.846507
v -0.867280 0.474964 1.016638
v -0.771898 0.287363 1.454969
v -0.303138 0.680692 1.500125
v 0.126336 0.680692 1.500125
v -0.088401 -0.960459 0.453349
v -0.523875 -1.174675 1.056899
v -0.641410 -1.073863 -0.048393
v -0.296504 -1.544776 2.659073
v -0.379327 -1.231306 2.694298
v -0.347087 -1.344323 2.449069
v -0.556399 -1.356275 2.524001
v -0.330122 -1.875224 2.432784
v -0.419501 1.030725 0.579050
v 0.119703 -1.544776 2.659073
v -0.536542 -1.426688 1.952380
v -1.084064 -0.587742 0.832924
v -1.065296 -0.785747 0.455156
v -0.843679 -0.888118 -0.231354
v -0.876117 -2.096392 -1.018908
v 0.666878 -0.888118 -0.231354
v 0.699316 -2.096392 -1.018908
v 0.984717 -1.123605 -1.066831
v 0.888495 -0.785747 0.455156
v 0.464609 -1.073863 -0.048393
v 0.347074 -1.174675 1.056899
v 0.183770 -1.946881 2.266178
v -0.088401 -1.934383 2.174998
v 0.359741 -1.426688 1.952380
v 0.153321 -1.875224 2.432784
v 0.379598 -1.356275 2.524001
v 0.381353 -1.552273 2.199683
v 0.170286 -1.344323 2.449069
v -0.297365 0.998504 -0.200802
v -0.088401 -1.833345 2.553788
v -0.360571 -1.946881 2.266178
v 0.367124 0.396583 -0.622377
v 0.570858 -0.254056 -1.092965
v 0.185226 0.175570 -1.115194
v 0.482277 0.906390 0.467623
v 0.725554 1.009878 0.770121
v 0.693142 1.460184 0.721704
v 0.685059 1.572901 0.936825
v -0.543925 0.396583 -0.622377
v -0.362027 0.175570 -1.115194
v -0.659078 0.906390 0.467623
v -0.869944 1.460184 0.721704
v -0.601686 1.491074 0.791901
v -0.553239 1.344585 0.923494
v -0.861860 1.572901 0.936825
v -0.902355 1.009878 0.770121
v -0.744044 0.600790 0.659672
v -0.908523 -0.280925 -0.415131
v -0.822914 0.036329 1.243055
v -0.432705 -0.807270 2.203676
v -1.161518 -1.123605 -1.066831
v -0.747660 -0.254056 -1.092965
v -0.597404 0.089086 1.570182
v -0.558154 -1.552273 2.199683
v -0.825595 0.118724 1.419351
v -0.050951 1.466860 3.076365
v -0.088401 -2.404243 -1.008951
vn 0.7517 -0.3295 0.5713
vn 0.8961 0.0962 0.4332
vn 0.7496 0.3013 0.5893
vn 0.5663 0.3563 0.7432
vn -0.0398 0.0780 0.9962
vn 0.8746 0.1738 0.4527
vn 0.1115 0.3668 0.9236
vn 0.5189 0.3418 0.7835
vn 0.9832 -0.0559 0.1739
vn 0.9607 0.2764 0.0259
vn 0.9650 0.2401 -0.1053
vn 0.9323 0.3069 -0.1916
vn 0.7414 0.1520 0.6536
vn 0.3762 0.7115 0.5935
vn 0.4236 0.5801 0.6957
vn -0.3365 0.8756 0.3465
vn -0.1606 0.1482 0.9758
vn -0.6507 0.6749 -0.3480
vn -0.0874 0.9182 -0.3864
vn -0.1102 0.9584 0.2634
vn 0.3750 0.8515 -0.3664
vn 0.3252 0.8440 0.4265
vn -0.4236 0.5801 0.6957
vn -0.2872 0.8095 0.5121
vn -0.7414 0.1521 0.6536
vn -0.9607 0.2764 0.0259
vn -0.7483 0.3026 0.5904
vn -0.8015 0.4376 0.4076
vn 0.1781 0.1733 0.9686
vn -0.2324 -0.9662 -0.1119
vn -0.3340 -0.9139 -0.2306
vn -0.2843 -0.9033 0.3214
vn 0.1654 -0.0936 0.9818
vn -0.5189 0.3418 0.7835
vn -0.5792 -0.2406 0.7788
vn -0.9130 -0.0163 0.4076
vn -0.7559 -0.5215 0.3957
vn 0.2030 0.9363 -0.2865
vn 0.3738 -0.2364 0.8969
vn -0.8942 -0.4477 0.0031
vn -0.9832 -0.0559 0.1740
vn -0.8522 -0.5206 -0.0528
vn -0.9275 -0.2542 0.2741
vn -0.5952 0.2507 0.7635
vn 0.9275 -0.2542 0.2741
vn 0.9028 0.2477 -0.3517
vn 0.4410 0.3305 0.8344
vn 0.8522 -0.5205 -0.0528
vn 0.2844 -0.9034 0.3210
vn 0.3732 -0.9065 -0.1975
vn 0.6498 -0.7291 -0.2151
vn -0.1394 -0.7934 -0.5925
vn 0.8942 -0.4477 0.0031
vn 0.2696 -0.8472 0.4578
vn 0.9130 -0.0163 0.4076
vn 0.9947 -0.1003 -0.0222
vn 0.5793 -0.2406 0.7788
vn -0.2654 0.8985 -0.3496
vn -0.4929 0.5621 -0.6641
vn -0.6771 -0.7358 -0.0114
vn 0.8534 0.4439 -0.2732
vn 0.4031 0.8277 -0.3904
vn 0.4426 0.6628 -0.6040
vn 0.7909 0.4321 -0.4333
vn 0.9852 -0.1702 -0.0210
vn 0.3605 0.4192 -0.8333
vn 0.4231 0.1246 0.8975
vn -0.8534 0.4439 -0.2732
vn -0.5112 0.7467 -0.4256
vn -0.7909 0.4321 -0.4333
vn -0.3605 0.4192 -0.8333
vn 0.6507 0.6749 -0.3480
vn 0.1606 0.1482 0.9758
vn -0.4231 0.1246 0.8975
vn -0.9852 -0.1702 -0.0210
vn -0.9323 0.3069 -0.1916
vn -0.9650 0.2401 -0.1053
vn -0.8961 0.0961 0.4333
vn -0.8745 0.1739 0.4527
vn -0.8831 0.3802 -0.2751
vn -0.5323 0.5310 -0.6592
vn -0.5596 0.3575 0.7477
vn -0.9947 -0.1003 -0.0222
vn -0.7517 -0.3295 0.5713
vn -0.4350 -0.1664 0.8849
vn -0.6408 0.1866 0.7447
s 1
usemtl Material.001
f 1//1 2//2 3//3
f 3//3 4//4 1//1
f 3//3 5//5 4//4
f 6//6 7//7 8//8
f 6//6 2//2 4//4
f 6//6 9//9 2//2
f 9//9 10//10 2//2
f 9//9 11//11 10//10
f 10//10 11//11 12//12
f 12//12 13//13 10//10
f 14//14 10//10 13//13
f 14//14 13//13 15//15
f 16//16 14//14 15//15
f 16//16 15//15 17//17
f 17//17 18//18 16//16
f 18//18 19//19 16//16
f 16//16 19//19 20//20
f 19//19 21//21 20//20
f 22//22 23//23 24//24
f 24//24 23//23 25//25
f 24//24 25//25 26//26
f 24//24 26//26 27//27
f 24//24 28//28 29//29 14//14
f 14//14 29//29 5//5
f 30//30 31//31 32//32
f 33//33 34//34 35//35
f 36//36 33//33 35//35
f 36//36 37//37 33//33
f 22//22 20//20 38//38
f 39//39 8//8 7//7
f 40//40 41//41 31//31
f 31//31 41//41 42//42
f 32//32 31//31 42//42
f 32//32 42//42 43//43
f 32//32 43//43 44//44
f 45//45 46//46 47//47
f 45//45 47//47 11//11
f 45//45 11//11 48//48
f 49//49 45//45 48//48
f 49//49 48//48 50//50
f 51//51 52//52 53//53
f 50//50 53//53 52//52
f 51//51 53//53 54//54
f 55//55 39//39 54//54
f 56//56 55//55 54//54
f 6//6 55//55 56//56
f 6//6 56//56 53//53
f 6//6 8//8 55//55
f 8//8 57//57 55//55
f 39//39 57//57 8//8
f 38//38 20//20 58//58
f 55//55 57//57 39//39
f 20//20 22//22 24//24
f 53//53 56//56 54//54
f 20//20 24//24 14//14
f 53//53 50//50 9//9
f 59//59 37//37 60//60
f 33//33 37//37 59//59
f 50//50 48//48 9//9
f 11//11 47//47 61//61
f 49//49 46//46 45//45
f 61//61 47//47 62//62
f 62//62 63//63 61//61
f 61//61 63//63 21//21
f 61//61 21//21 64//64
f 12//12 61//61 64//64
f 12//12 64//64 65//65
f 65//65 64//64 66//66
f 65//65 66//66 67//67
f 65//65 67//67 13//13
f 67//67 17//17 13//13
f 67//67 66//66 18//18
f 19//19 66//66 64//64
f 68//68 58//58 69//69
f 68//68 70//70 58//58
f 38//38 58//58 70//70
f 38//38 70//70 71//71
f 38//38 71//71 72//72
f 72//72 22//22 38//38
f 73//73 22//22 72//72
f 73//73 72//72 74//74
f 74//74 25//25 73//73
f 75//75 25//25 74//74
f 75//75 74//74 71//71
f 76//76 25//25 75//75
f 76//76 75//75 70//70
f 74//74 72//72 71//71
f 75//75 71//71 70//70
f 76//76 70//70 68//68
f 76//76 68//68 77//77
f 26//26 76//76 77//77
f 41//41 26//26 77//77
f 41//41 78//78 26//26
f 79//79 78//78 41//41
f 77//77 68//68 80//80
f 43//43 77//77 80//80
f 81//81 68//68 69//69
f 68//68 81//81 80//80
f 33//33 7//7 34//34
f 79//79 34//34 7//7
f 43//43 80//80 44//44
f 43//43 42//42 77//77
f 82//82 79//79 7//7
f 41//41 77//77 42//42
f 79//79 41//41 40//40
f 79//79 40//40 83//83
f 79//79 83//83 36//36
f 40//40 37//37 83//83
f 60//60 37//37 40//40
f 83//83 37//37 36//36
f 34//34 36//36 35//35
f 79//79 36//36 34//34
f 79//79 82//82 78//78
f 82//82 84//84 78//78
f 84//84 27//27 78//78
f 27//27 84//84 82//82
f 78//78 27//27 26//26
f 76//76 26//26 25//25
f 25//25 23//23 73//73
f 22//22 73//73 23//23
f 19//19 64//64 21//21
f 19//19 18//18 66//66
f 17//17 67//67 18//18
f 20//20 14//14 16//16
f 13//13 17//17 15//15
f 14//14 3//3 10//10
f 12//12 65//65 13//13
f 12//12 11//11 61//61
f 9//9 48//48 11//11
f 6//6 53//53 9//9
f 4//4 7//7 6//6
f 4//4 5//5 7//7
f 3//3 14//14 5//5
f 2//2 10//10 3//3
f 4//4 2//2 1//1
f 21//21 63//63 69//69 58//58
f 27//27 5//5 24//24
f 82//82 7//7 5//5
f 27//27 82//82 5//5
f 29//29 28//28 85//85
f 5//5 29//29 85//85
f 28//28 24//24 5//5
f 5//5 85//85 28//28
f 33//33 39//39 7//7
f 60//60 40//40 52//52
f 30//30 49//49 50//50
f 50//50 31//31 30//30
f 30//30 32//32 49//49
f 31//31 52//52 40//40
f 44//44 86//86 32//32
f 52//52 31//31 50//50
f 69//69 63//63 81//81
f 46//46 49//49 86//86
f 49//49 32//32 86//86
f 58//58 20//20 21//21
f 59//59 52//52 51//51
f 39//39 59//59 54//54
f 59//59 51//51 54//54
f 39//39 33//33 59//59
f 52//52 59//59 60//60
f 63//63 62//62 81//81
f 81//81 62//62 80//80
f 62//62 47//47 80//80
f 80//80 47//47 44//44
f 47//47 46//46 86//86
f 86//86 44//44 47//47
